{
	"asset":{
		"generator":"Khronos glTF Blender I/O v3.5.30",
		"version":"2.0"
	},
	"scene":0,
	"scenes":[
		{
			"name":"Scene",
			"nodes":[
				12
			]
		}
	],
	"nodes":[
		{
			"name":"Ribbon.R.010",
			"rotation":[
				-0.013900039717555046,
				-0.001437424449250102,
				0.0010550759034231305,
				0.9999018311500549
			],
			"scale":[
				1,
				1.000000238418579,
				1.0000001192092896
			],
			"translation":[
				-1.234002411365509e-08,
				0.2397036850452423,
				5.2619725465774536e-08
			]
		},
		{
			"children":[
				0
			],
			"name":"Ribbon.R.009",
			"rotation":[
				-0.003908527083694935,
				-0.00040401710430160165,
				0.0002894092467613518,
				0.9999921917915344
			],
			"scale":[
				1,
				1.0000001192092896,
				1
			],
			"translation":[
				2.5727786123752594e-08,
				0.3293258547782898,
				-2.1886080503463745e-08
			]
		},
		{
			"children":[
				1
			],
			"name":"Ribbon.R.008",
			"rotation":[
				-0.0030284272506833076,
				-0.00031234126072376966,
				0.0002221376053057611,
				0.9999953508377075
			],
			"scale":[
				0.9999999403953552,
				0.9999999403953552,
				0.9999999403953552
			],
			"translation":[
				-7.741618901491165e-09,
				0.37102118134498596,
				-1.4551915228366852e-09
			]
		},
		{
			"children":[
				2
			],
			"name":"Ribbon.R.007",
			"rotation":[
				-0.0005320710479281843,
				-5.550395144382492e-05,
				3.803737854468636e-05,
				0.9999998807907104
			],
			"scale":[
				1,
				1.0000001192092896,
				1
			],
			"translation":[
				3.026798367500305e-09,
				0.3938981592655182,
				-1.1059455573558807e-09
			]
		},
		{
			"children":[
				3
			],
			"name":"Ribbon.R.006",
			"rotation":[
				-0.008223083801567554,
				-0.0008458761731162667,
				0.0005924560246057808,
				0.9999656677246094
			],
			"scale":[
				0.9999999403953552,
				1,
				1
			],
			"translation":[
				2.051820047199726e-08,
				0.39847108721733093,
				-2.153683453798294e-09
			]
		},
		{
			"children":[
				4
			],
			"name":"Ribbon.R.005",
			"rotation":[
				0.0032989077735692263,
				0.0003395320090930909,
				-0.00023582184803672135,
				0.9999944567680359
			],
			"scale":[
				1,
				1.0000001192092896,
				1
			],
			"translation":[
				-5.180481821298599e-08,
				0.3853272497653961,
				1.862645149230957e-09
			]
		},
		{
			"children":[
				5
			],
			"name":"Ribbon.R.004",
			"rotation":[
				0.019102754071354866,
				0.004564784001559019,
				0.011589199304580688,
				0.999739944934845
			],
			"scale":[
				1,
				1,
				1.0000001192092896
			],
			"translation":[
				-1.5832483768463135e-08,
				0.35052475333213806,
				5.820766091346741e-09
			]
		},
		{
			"children":[
				6
			],
			"name":"Ribbon.R.003",
			"rotation":[
				-0.007593658287078142,
				-0.0036579095758497715,
				-0.01433289423584938,
				0.9998617768287659
			],
			"scale":[
				0.9999998807907104,
				1.0000001192092896,
				0.9999999403953552
			],
			"translation":[
				2.561137080192566e-09,
				0.2603360414505005,
				-4.656612873077393e-10
			]
		},
		{
			"children":[
				7
			],
			"name":"Ribbon.R.002",
			"rotation":[
				-0.005770272109657526,
				-3.2225503673544154e-05,
				0.00229637511074543,
				0.9999807476997375
			],
			"scale":[
				1,
				0.9999999403953552,
				1
			],
			"translation":[
				-4.307366907596588e-09,
				0.17299243807792664,
				9.42964106798172e-09
			]
		},
		{
			"children":[
				8
			],
			"name":"Ribbon.R.001",
			"rotation":[
				-0.005309899337589741,
				-0.006488367449492216,
				-0.025254635140299797,
				0.9996458888053894
			],
			"scale":[
				0.9999999403953552,
				1,
				0.9999998807907104
			],
			"translation":[
				1.7462298274040222e-10,
				0.05808321014046669,
				2.0954757928848267e-09
			]
		},
		{
			"children":[
				9
			],
			"name":"Ribbon.R.000",
			"rotation":[
				-0.8641853928565979,
				0.034738101065158844,
				-0.5002318620681763,
				0.04177286475896835
			],
			"scale":[
				1,
				1.0000001192092896,
				1
			],
			"translation":[
				-8.510425686836243e-05,
				3.6597251892089844e-05,
				-0.0028313249349594116
			]
		},
		{
			"mesh":0,
			"name":"Ribbon.001",
			"skin":0
		},
		{
			"children":[
				11,
				10
			],
			"name":"Ribbon.R"
		}
	],
	"materials":[
		{
			"doubleSided":true,
			"name":"String",
			"pbrMetallicRoughness":{
				"baseColorTexture":{
					"index":0
				},
				"metallicFactor":0,
				"roughnessFactor":0.5
			}
		}
	],
	"meshes":[
		{
			"name":"\u7acb\u65b9\u4f53.002",
			"primitives":[
				{
					"attributes":{
						"POSITION":0,
						"TEXCOORD_0":1,
						"NORMAL":2,
						"JOINTS_0":3,
						"WEIGHTS_0":4
					},
					"indices":5,
					"material":0
				}
			]
		}
	],
	"textures":[
		{
			"sampler":0,
			"source":0
		}
	],
	"images":[
		{
			"mimeType":"image/png",
			"name":"SpearStringTex",
			"uri":"SpearStringTex.png"
		}
	],
	"skins":[
		{
			"inverseBindMatrices":6,
			"joints":[
				10,
				9,
				8,
				7,
				6,
				5,
				4,
				3,
				2,
				1,
				0
			],
			"name":"Ribbon.R"
		}
	],
	"accessors":[
		{
			"bufferView":0,
			"componentType":5126,
			"count":3661,
			"max":[
				0.19502496719360352,
				0.005578398704528809,
				0.007913835346698761
			],
			"min":[
				-0.238026425242424,
				-3.2313499450683594,
				-0.26072123646736145
			],
			"type":"VEC3"
		},
		{
			"bufferView":1,
			"componentType":5126,
			"count":3661,
			"type":"VEC2"
		},
		{
			"bufferView":2,
			"componentType":5126,
			"count":3661,
			"type":"VEC3"
		},
		{
			"bufferView":3,
			"componentType":5121,
			"count":3661,
			"type":"VEC4"
		},
		{
			"bufferView":4,
			"componentType":5126,
			"count":3661,
			"type":"VEC4"
		},
		{
			"bufferView":5,
			"componentType":5123,
			"count":5424,
			"type":"SCALAR"
		},
		{
			"bufferView":6,
			"componentType":5126,
			"count":11,
			"type":"MAT4"
		}
	],
	"bufferViews":[
		{
			"buffer":0,
			"byteLength":43932,
			"byteOffset":0,
			"target":34962
		},
		{
			"buffer":0,
			"byteLength":29288,
			"byteOffset":43932,
			"target":34962
		},
		{
			"buffer":0,
			"byteLength":43932,
			"byteOffset":73220,
			"target":34962
		},
		{
			"buffer":0,
			"byteLength":14644,
			"byteOffset":117152,
			"target":34962
		},
		{
			"buffer":0,
			"byteLength":58576,
			"byteOffset":131796,
			"target":34962
		},
		{
			"buffer":0,
			"byteLength":10848,
			"byteOffset":190372,
			"target":34963
		},
		{
			"buffer":0,
			"byteLength":704,
			"byteOffset":201220
		}
	],
	"samplers":[
		{
			"magFilter":9729,
			"minFilter":9987
		}
	],
	"buffers":[
		{
			"byteLength":201924,
			"uri":"SpearRibbon_R.bin"
		}
	]
}
