{
	"asset":{
		"generator":"Khronos glTF Blender I/O v3.5.30",
		"version":"2.0"
	},
	"scene":0,
	"scenes":[
		{
			"name":"Scene",
			"nodes":[
				0
			]
		}
	],
	"nodes":[
		{
			"mesh":0,
			"name":"\u5186\u67f1",
			"rotation":[
				0.7071068286895752,
				0,
				0,
				0.7071068286895752
			],
			"scale":[
				0.10000000149011612,
				0.10000000149011612,
				0.10000000149011612
			]
		}
	],
	"materials":[
		{
			"doubleSided":true,
			"name":"\u30de\u30c6\u30ea\u30a2\u30eb",
			"pbrMetallicRoughness":{
				"baseColorTexture":{
					"index":0
				},
				"metallicFactor":0,
				"roughnessFactor":0.5
			}
		}
	],
	"meshes":[
		{
			"name":"\u5186\u67f1",
			"primitives":[
				{
					"attributes":{
						"POSITION":0,
						"TEXCOORD_0":1,
						"NORMAL":2
					},
					"indices":3,
					"material":0
				}
			]
		}
	],
	"textures":[
		{
			"sampler":0,
			"source":0
		}
	],
	"images":[
		{
			"mimeType":"image/png",
			"name":"playerWeapon",
			"uri":"playerWeapon.png"
		}
	],
	"accessors":[
		{
			"bufferView":0,
			"componentType":5126,
			"count":534,
			"max":[
				4.400000095367432,
				1.2000000476837158,
				8.207999229431152
			],
			"min":[
				-4.400000095367432,
				-1.2000000476837158,
				-25
			],
			"type":"VEC3"
		},
		{
			"bufferView":1,
			"componentType":5126,
			"count":534,
			"type":"VEC2"
		},
		{
			"bufferView":2,
			"componentType":5126,
			"count":534,
			"type":"VEC3"
		},
		{
			"bufferView":3,
			"componentType":5123,
			"count":990,
			"type":"SCALAR"
		}
	],
	"bufferViews":[
		{
			"buffer":0,
			"byteLength":6408,
			"byteOffset":0,
			"target":34962
		},
		{
			"buffer":0,
			"byteLength":4272,
			"byteOffset":6408,
			"target":34962
		},
		{
			"buffer":0,
			"byteLength":6408,
			"byteOffset":10680,
			"target":34962
		},
		{
			"buffer":0,
			"byteLength":1980,
			"byteOffset":17088,
			"target":34963
		}
	],
	"samplers":[
		{
			"magFilter":9729,
			"minFilter":9987
		}
	],
	"buffers":[
		{
			"byteLength":19068,
			"uri":"PlayerWeapon.bin"
		}
	]
}
